<svg width="141" height="141" viewBox="0 0 141 141" fill="none" xmlns="http://www.w3.org/2000/svg">
<path d="M105.75 17.625H35.25C30.5756 17.625 26.0926 19.4819 22.7872 22.7872C19.4819 26.0926 17.625 30.5756 17.625 35.25V41.125C17.625 42.6831 18.244 44.1775 19.3457 45.2793C20.4475 46.381 21.9419 47 23.5 47H70.5C72.0581 47 73.5525 47.619 74.6543 48.7207C75.756 49.8225 76.375 51.3169 76.375 52.875V99.875C76.375 101.433 75.756 102.927 74.6543 104.029C73.5525 105.131 72.0581 105.75 70.5 105.75H26.4375C24.1003 105.75 21.8588 106.678 20.2061 108.331C18.5535 109.984 17.625 112.225 17.625 114.562C17.625 116.9 18.5535 119.141 20.2061 120.794C21.8588 122.447 24.1003 123.375 26.4375 123.375H105.75C110.424 123.375 114.907 121.518 118.213 118.213C121.518 114.907 123.375 110.424 123.375 105.75V35.25C123.375 30.5756 121.518 26.0926 118.213 22.7872C114.907 19.4819 110.424 17.625 105.75 17.625ZM99.875 99.875C98.713 99.875 97.5772 99.5304 96.611 98.8849C95.6449 98.2393 94.8919 97.3218 94.4472 96.2483C94.0025 95.1747 93.8862 93.9935 94.1129 92.8538C94.3396 91.7142 94.8991 90.6674 95.7207 89.8457C96.5424 89.0241 97.5892 88.4646 98.7288 88.2379C99.8685 88.0112 101.05 88.1275 102.123 88.5722C103.197 89.0169 104.114 89.7699 104.76 90.736C105.405 91.7022 105.75 92.838 105.75 94C105.75 95.5581 105.131 97.0525 104.029 98.1543C102.927 99.256 101.433 99.875 99.875 99.875Z" fill="#E67E22"/>
<path d="M41.125 47H52.875V52.875C52.875 54.4331 52.256 55.9275 51.1543 57.0293C50.0525 58.131 48.5581 58.75 47 58.75C45.4419 58.75 43.9475 58.131 42.8457 57.0293C41.744 55.9275 41.125 54.4331 41.125 52.875V47Z" fill="#E67E22"/>
<path opacity="0.35" d="M49.1502 105.75H44.8497C42.141 105.751 39.5152 104.815 37.4169 103.102C35.3185 101.389 33.8764 99.004 33.3347 96.35L29.5101 77.55C29.3361 76.6978 29.3535 75.8176 29.5611 74.9729C29.7687 74.1282 30.1612 73.3402 30.7104 72.6657C31.2596 71.9912 31.9517 71.447 32.7367 71.0725C33.5217 70.698 34.3801 70.5024 35.2499 70.5H58.7499C59.6207 70.5007 60.4805 70.695 61.267 71.0687C62.0535 71.4425 62.747 71.9864 63.2975 72.6611C63.848 73.3359 64.2416 74.1245 64.4498 74.97C64.658 75.8156 64.6757 76.6968 64.5016 77.55L60.6358 96.35C60.0951 98.9991 58.6573 101.381 56.565 103.093C54.4727 104.805 51.8539 105.744 49.1502 105.75Z" fill="#E67E22"/>
<path opacity="0.35" d="M99.875 99.875C103.12 99.875 105.75 97.2447 105.75 94C105.75 90.7553 103.12 88.125 99.875 88.125C96.6303 88.125 94 90.7553 94 94C94 97.2447 96.6303 99.875 99.875 99.875Z" fill="#E67E22"/>
</svg>
