<svg width="34" height="35" viewBox="0 0 34 35" fill="none" xmlns="http://www.w3.org/2000/svg">
<path d="M15.5 0.242188C14.2916 0.242289 13.084 0.524912 11.9818 1.0896L2.48572 5.97729C0.99153 6.74754 0.0625 8.26987 0.0625 9.95093V23.0493C0.0625 24.7312 0.99153 26.2527 2.48572 27.0214L11.9818 31.9122C13.0827 32.4761 14.2902 32.7581 15.4984 32.7581C15.5114 32.7581 15.5251 32.7549 15.5381 32.7549C15.625 32.1488 15.8928 31.5869 16.3331 31.1458L17.6042 29.8746C16.1629 30.5011 14.5015 30.4628 13.0958 29.7429L3.60132 24.8536C2.92288 24.5051 2.5 23.8139 2.5 23.0493V9.95093C2.5 9.18636 2.92288 8.49521 3.60132 8.14502L13.0927 3.25732C13.8458 2.87139 14.6737 2.67969 15.5 2.67969C16.3263 2.67969 17.1534 2.87139 17.9058 3.25732L27.3971 8.14661C28.0772 8.49517 28.5 9.18636 28.5 9.95093V16.6636C29.3726 16.8415 30.1908 17.1652 30.9375 17.5983V9.95093C30.9375 8.26905 30.0085 6.74751 28.5143 5.97888L19.0198 1.0896L19.0182 1.08801C17.9168 0.523731 16.7084 0.242086 15.5 0.242188ZM5.31995 8.77344C5.04659 8.77577 4.78195 8.86993 4.56855 9.04079C4.35516 9.21165 4.20539 9.44928 4.14332 9.71551C4.08125 9.98173 4.11048 10.2611 4.22631 10.5087C4.34214 10.7563 4.53784 10.9578 4.78198 11.0808L11.958 14.8101C12.6944 15.1925 13.4826 15.4002 14.2812 15.5289V27.4689C14.279 27.6304 14.3088 27.7907 14.369 27.9406C14.4292 28.0904 14.5187 28.2268 14.6321 28.3419C14.7455 28.4569 14.8806 28.5482 15.0296 28.6105C15.1786 28.6729 15.3385 28.705 15.5 28.705C15.6615 28.705 15.8214 28.6729 15.9704 28.6105C16.1194 28.5482 16.2545 28.4569 16.3679 28.3419C16.4813 28.2268 16.5708 28.0904 16.631 27.9406C16.6912 27.7907 16.721 27.6304 16.7188 27.4689V15.5289C17.5174 15.4002 18.304 15.1925 19.0404 14.8101C19.0409 14.8101 19.0415 14.8101 19.042 14.8101L26.218 11.0824C26.5051 10.9334 26.7211 10.6765 26.8188 10.3682C26.9164 10.0599 26.8875 9.72539 26.7385 9.43835C26.5895 9.15132 26.3326 8.93522 26.0243 8.83761C25.716 8.73999 25.3815 8.76886 25.0945 8.91785L17.9169 12.6471C17.1636 13.038 16.3412 13.2312 15.519 13.2343C15.5048 13.2335 15.4905 13.2329 15.4762 13.2327C14.6552 13.2288 13.8337 13.0377 13.0815 12.6471L5.90552 8.91943C5.72565 8.82245 5.52429 8.77225 5.31995 8.77344ZM26.875 18.1251C23.2911 18.1251 20.375 21.0412 20.375 24.6251C20.375 25.9779 20.7916 27.2334 21.5017 28.275L17.4821 32.2947C17.2432 32.5327 17.125 32.8444 17.125 33.1564C17.125 33.4684 17.244 33.78 17.4821 34.0181C17.9582 34.4934 18.7293 34.4934 19.2054 34.0181L23.2251 30C24.2667 30.7093 25.5222 31.1251 26.875 31.1251C30.4589 31.1251 33.375 28.2091 33.375 24.6251C33.375 21.0412 30.4589 18.1251 26.875 18.1251ZM26.875 20.5626C29.1151 20.5626 30.9375 22.3851 30.9375 24.6251C30.9375 26.8652 29.1151 28.6876 26.875 28.6876C24.6349 28.6876 22.8125 26.8652 22.8125 24.6251C22.8125 22.3851 24.6349 20.5626 26.875 20.5626Z" fill="white"/>
</svg>
