<svg width="29" height="29" viewBox="0 0 29 29" fill="none" xmlns="http://www.w3.org/2000/svg">
<path d="M19.333 24.1667C18.6672 24.1667 18.1247 23.6253 18.1247 22.9583V14.5C18.1247 13.1648 17.0432 12.0833 15.708 12.0833H9.66634C8.99934 12.0833 8.45801 12.6247 8.45801 13.2917C8.45801 13.9587 8.99209 14.5 9.66634 14.5C10.3406 14.5 10.8747 15.0413 10.8747 15.7083V22.9583C10.8747 23.6253 10.349 24.1667 9.66634 24.1667C8.98363 24.1667 8.45801 24.708 8.45801 25.375C8.45801 26.042 8.99934 26.5833 9.66634 26.5833H19.333C20 26.5833 20.5413 26.042 20.5413 25.375C20.5413 24.708 19.9988 24.1667 19.333 24.1667Z" fill="white"/>
<path opacity="0.35" d="M14.5 9.66667C16.502 9.66667 18.125 8.0437 18.125 6.04167C18.125 4.03964 16.502 2.41667 14.5 2.41667C12.498 2.41667 10.875 4.03964 10.875 6.04167C10.875 8.0437 12.498 9.66667 14.5 9.66667Z" fill="white"/>
</svg>
