<svg width="150" height="151" viewBox="0 0 150 151" fill="none" xmlns="http://www.w3.org/2000/svg">
<path opacity="0.35" d="M112.5 132.125H37.5C27.1438 132.125 18.75 123.675 18.75 113.25V37.75C18.75 27.3247 27.1438 18.875 37.5 18.875H112.5C122.856 18.875 131.25 27.3247 131.25 37.75V113.25C131.25 123.675 122.856 132.125 112.5 132.125Z" fill="#E67E22"/>
<path d="M37.5062 119.542C35.5999 119.542 33.7312 118.673 32.4999 117.025C30.4249 114.25 30.9874 110.305 33.7499 108.223C33.8312 108.147 43.7499 100.446 43.7499 91.2292C43.7499 86.932 41.3437 83.2702 38.5562 79.0359C35.1312 73.8264 31.2499 67.9248 31.2499 59.7708C31.2499 44.4317 45.5937 33.22 46.2062 32.7481C48.9562 30.653 52.8687 31.1689 54.9687 33.931C57.0624 36.6867 56.5374 40.6316 53.8062 42.7393C50.9999 44.9351 43.7499 52.246 43.7499 59.7708C43.7499 64.1372 46.1749 67.8179 48.9812 72.0899C52.3874 77.268 56.2499 83.1444 56.2499 91.2292C56.2499 106.782 41.8624 117.824 41.2499 118.283C40.1249 119.133 38.8124 119.542 37.5062 119.542Z" fill="#E67E22"/>
<path d="M68.7562 119.542C66.8499 119.542 64.9812 118.673 63.7499 117.025C61.6749 114.25 62.2374 110.305 64.9999 108.223C65.0812 108.154 74.9999 100.453 74.9999 91.2355C74.9999 86.9383 72.5937 83.2765 69.8062 79.0422C66.3812 73.8264 62.4999 67.9248 62.4999 59.7708C62.4999 44.4317 76.8437 33.22 77.4562 32.7481C80.1999 30.653 84.1187 31.1689 86.2187 33.931C88.3124 36.6867 87.7874 40.6316 85.0562 42.7393C82.2499 44.9351 74.9999 52.246 74.9999 59.7708C74.9999 64.1372 77.4249 67.8179 80.2312 72.0899C83.6374 77.268 87.4999 83.1444 87.4999 91.2292C87.4999 106.782 73.1124 117.824 72.4999 118.283C71.3749 119.133 70.0624 119.542 68.7562 119.542Z" fill="#E67E22"/>
<path d="M100.006 119.542C98.1002 119.542 96.2314 118.673 95.0002 117.025C92.9252 114.25 93.4877 110.305 96.2502 108.223C96.3314 108.154 106.25 100.453 106.25 91.2355C106.25 86.9383 103.844 83.2765 101.056 79.0422C97.6314 73.8264 93.7502 67.9248 93.7502 59.7708C93.7502 44.4317 108.094 33.22 108.706 32.7481C111.456 30.653 115.369 31.1689 117.469 33.931C119.563 36.6867 119.038 40.6316 116.306 42.7393C113.5 44.9351 106.25 52.246 106.25 59.7708C106.25 64.1372 108.675 67.8179 111.481 72.0899C114.888 77.268 118.75 83.1444 118.75 91.2292C118.75 106.782 104.363 117.824 103.75 118.283C102.625 119.133 101.313 119.542 100.006 119.542Z" fill="#E67E22"/>
</svg>
