<svg width="142" height="142" viewBox="0 0 142 142" fill="none" xmlns="http://www.w3.org/2000/svg">
<path opacity="0.35" d="M127.208 41.4166H14.7917C9.89866 41.4166 5.91675 45.3985 5.91675 50.2916C5.91675 55.1847 9.89866 59.1666 14.7917 59.1666C17.0282 59.1666 18.9216 60.77 19.2884 62.977L22.0988 79.8335C23.5307 88.4305 30.8969 94.6666 39.6062 94.6666H102.388C111.103 94.6666 118.464 88.4305 119.895 79.8335L122.706 62.971C123.079 60.77 124.972 59.1666 127.208 59.1666C132.101 59.1666 136.083 55.1847 136.083 50.2916C136.083 45.3985 132.101 41.4166 127.208 41.4166Z" fill="#E67E22"/>
<path opacity="0.35" d="M71.0001 124.25C77.5354 124.25 82.8334 118.952 82.8334 112.417C82.8334 105.881 77.5354 100.583 71.0001 100.583C64.4647 100.583 59.1667 105.881 59.1667 112.417C59.1667 118.952 64.4647 124.25 71.0001 124.25Z" fill="#E67E22"/>
<path d="M76.9167 23.6667H65.0834C61.8174 23.6667 59.1667 21.016 59.1667 17.75C59.1667 14.484 61.8174 11.8334 65.0834 11.8334H76.9167C80.1827 11.8334 82.8334 14.484 82.8334 17.75C82.8334 21.016 80.1827 23.6667 76.9167 23.6667Z" fill="#E67E22"/>
<path d="M118.896 119.138L115.02 103.624C113.701 98.3527 108.979 94.6666 103.542 94.6666H39.2928C33.8553 94.6666 29.1338 98.3527 27.8144 103.63L23.939 119.15C23.2704 121.818 23.8621 124.593 25.5543 126.765C27.2405 128.924 29.7906 130.167 32.5418 130.167H110.287C113.044 130.167 115.594 128.924 117.286 126.747C118.978 124.581 119.564 121.806 118.896 119.138ZM71.0002 121.292C66.1012 121.292 62.1252 117.316 62.1252 112.417C62.1252 107.518 66.1012 103.542 71.0002 103.542C75.8992 103.542 79.8752 107.518 79.8752 112.417C79.8752 117.316 75.8992 121.292 71.0002 121.292Z" fill="#E67E22"/>
<path d="M104.861 82.8333C105.873 81.0879 106.5 79.0822 106.5 76.9167C106.5 70.3787 101.205 65.0833 94.6667 65.0833C94.1342 65.0833 93.6253 65.1721 93.1106 65.2431C91.0812 61.6339 87.2649 59.1667 82.8333 59.1667C81.4252 59.1667 80.0939 59.4566 78.8396 59.9062C75.5854 55.877 70.6628 53.25 65.0833 53.25C57.3266 53.25 50.8005 58.2555 48.3865 65.1898C48.0374 65.1602 47.6943 65.0833 47.3333 65.0833C40.7954 65.0833 35.5 70.3787 35.5 76.9167C35.5 79.0822 36.1272 81.0879 37.1389 82.8333H104.861Z" fill="#E67E22"/>
<path d="M121.617 30.5773C120.83 30.0567 102.021 17.75 71 17.75C39.9789 17.75 21.1698 30.0567 20.3829 30.5773C18.2115 32.0269 17.2471 34.719 18.0044 37.2158C18.7558 39.7067 21.0633 41.4167 23.6666 41.4167H118.333C120.937 41.4167 123.244 39.7067 123.996 37.2158C124.753 34.719 123.783 32.0269 121.617 30.5773Z" fill="#E67E22"/>
</svg>
