<svg width="146" height="129" viewBox="0 0 146 129" fill="none" xmlns="http://www.w3.org/2000/svg">
<path opacity="0.35" d="M115.583 86V26.875C115.583 17.9686 107.413 10.75 97.3334 10.75H48.6667C38.5867 10.75 30.4167 17.9686 30.4167 26.875V86L42.5834 112.875H103.417L115.583 86Z" fill="#E67E22"/>
<path d="M48.6667 118.25V120.938C48.6667 122.421 50.0294 123.625 51.7084 123.625H57.7917C59.4707 123.625 60.8334 122.421 60.8334 120.938V118.25H48.6667Z" fill="#E67E22"/>
<path d="M85.1667 118.25V120.938C85.1667 122.421 86.5294 123.625 88.2084 123.625H94.2918C95.9708 123.625 97.3334 122.421 97.3334 120.938V118.25H85.1667Z" fill="#E67E22"/>
<path d="M77.8728 23.435C75.2813 20.8604 70.7249 20.8604 68.1334 23.435C61.0281 30.4977 48.6667 44.1717 48.6667 53.75C48.6667 65.6234 59.562 75.25 73.0001 75.25C86.4382 75.25 97.3334 65.6234 97.3334 53.75C97.3334 44.1717 84.9721 30.4977 77.8728 23.435ZM73.0001 69.875C66.278 69.875 60.8334 65.0644 60.8334 59.125C60.8334 54.3359 67.0141 47.4989 70.5607 43.9675C71.8564 42.6829 74.1316 42.6829 75.4334 43.9675C78.9861 47.4989 85.1667 54.3359 85.1667 59.125C85.1667 65.0644 79.7222 69.875 73.0001 69.875Z" fill="#E67E22"/>
<path d="M30.4167 86V102.125C30.4167 111.031 38.5867 118.25 48.6667 118.25H97.3334C107.413 118.25 115.583 111.031 115.583 102.125V86H30.4167ZM60.8334 107.5C57.4754 107.5 54.7501 105.092 54.7501 102.125C54.7501 99.158 57.4754 96.75 60.8334 96.75C64.1914 96.75 66.9167 99.158 66.9167 102.125C66.9167 105.092 64.1914 107.5 60.8334 107.5ZM85.1667 107.5C81.8088 107.5 79.0834 105.092 79.0834 102.125C79.0834 99.158 81.8088 96.75 85.1667 96.75C88.5247 96.75 91.2501 99.158 91.2501 102.125C91.2501 105.092 88.5247 107.5 85.1667 107.5Z" fill="#E67E22"/>
</svg>
