<svg width="48" height="48" viewBox="0 0 48 48" fill="none" xmlns="http://www.w3.org/2000/svg">
<path d="M37.0664 43H31.7334L28.8134 46.64C28.3734 47.189 27.5074 47.071 27.2294 46.426L21.4434 33H33.9134L37.9134 41.677C38.1984 42.295 37.7474 43 37.0664 43Z" fill="url(#paint0_linear)"/>
<path d="M27.6569 33L21.7749 46.438C21.4939 47.08 20.6309 47.195 20.1929 46.648L17.2669 43H11.9339C11.2529 43 10.8019 42.295 11.0869 41.677L15.0869 33H27.6569Z" fill="url(#paint1_linear)"/>
<path d="M25.9825 4.51801L28.0995 5.70501L30.5265 5.73501C31.9375 5.75201 33.2385 6.50301 33.9585 7.71701L35.1975 9.80301L37.2835 11.042C38.4965 11.763 39.2475 13.063 39.2655 14.474L39.2955 16.901L40.4825 19.018C41.1725 20.249 41.1725 21.75 40.4825 22.981L39.2955 25.098L39.2655 27.525C39.2485 28.936 38.4975 30.237 37.2835 30.957L35.1975 32.196L33.9585 34.282C33.2375 35.495 31.9375 36.246 30.5265 36.264L28.0995 36.294L25.9825 37.481C24.7515 38.171 23.2505 38.171 22.0195 37.481L19.9025 36.294L17.4755 36.264C16.0645 36.247 14.7635 35.496 14.0435 34.282L12.8045 32.196L10.7185 30.957C9.50545 30.236 8.75445 28.936 8.73645 27.525L8.70645 25.098L7.51945 22.981C6.82945 21.75 6.82945 20.249 7.51945 19.018L8.70645 16.901L8.73645 14.474C8.75345 13.063 9.50445 11.762 10.7185 11.042L12.8045 9.80301L14.0435 7.71701C14.7645 6.50401 16.0645 5.75301 17.4755 5.73501L19.9025 5.70501L22.0195 4.51801C23.2495 3.82701 24.7515 3.82701 25.9825 4.51801Z" fill="#FDB700"/>
<path d="M24 34C31.1797 34 37 28.1797 37 21C37 13.8203 31.1797 8 24 8C16.8203 8 11 13.8203 11 21C11 28.1797 16.8203 34 24 34Z" fill="url(#paint2_linear)"/>
<defs>
<linearGradient id="paint0_linear" x1="21.4434" y1="39.995" x2="38.0004" y2="39.995" gradientUnits="userSpaceOnUse">
<stop stop-color="#912FBD"/>
<stop offset="1" stop-color="#9332BF"/>
</linearGradient>
<linearGradient id="paint1_linear" x1="10.9999" y1="39.999" x2="27.6569" y2="39.999" gradientUnits="userSpaceOnUse">
<stop stop-color="#AE4CD5"/>
<stop offset="1" stop-color="#AC4AD5"/>
</linearGradient>
<linearGradient id="paint2_linear" x1="11" y1="21" x2="37" y2="21" gradientUnits="userSpaceOnUse">
<stop stop-color="#FEDE00"/>
<stop offset="1" stop-color="#FFD000"/>
</linearGradient>
</defs>
</svg>
