<svg width="140" height="140" viewBox="0 0 140 140" fill="none" xmlns="http://www.w3.org/2000/svg">
<path opacity="0.35" d="M116.667 105H23.3333C13.6674 105 5.83325 97.1659 5.83325 87.5V40.8334C5.83325 31.1675 13.6674 23.3334 23.3333 23.3334H116.667C126.332 23.3334 134.167 31.1675 134.167 40.8334V87.5C134.167 97.1659 126.332 105 116.667 105Z" fill="#E67E22"/>
<path d="M84.5834 105C83.5567 105 56.4434 105 55.4167 105C50.5867 105 46.6667 108.92 46.6667 113.75C46.6667 118.58 50.5867 122.5 55.4167 122.5C56.4434 122.5 83.5567 122.5 84.5834 122.5C89.4134 122.5 93.3334 118.58 93.3334 113.75C93.3334 108.92 89.4134 105 84.5834 105Z" fill="#E67E22"/>
</svg>
