<svg width="21" height="17" viewBox="0 0 21 17" fill="none" xmlns="http://www.w3.org/2000/svg">
<path fill-rule="evenodd" clip-rule="evenodd" d="M19.3538 1.64525C20.2624 2.55389 20.2624 4.0271 19.3538 4.93575L10.235 14.0545C9.32637 14.9632 7.85316 14.9632 6.94451 14.0545C6.03587 13.1459 6.03587 11.6727 6.94451 10.764L16.0633 1.64525C16.9719 0.736598 18.4451 0.736598 19.3538 1.64525Z" fill="#2ECC71"/>
<path fill-rule="evenodd" clip-rule="evenodd" d="M9.70265 14.6486C8.81034 15.5732 7.33737 15.5995 6.41267 14.7072L1.67427 10.1348C0.749576 9.24247 0.723318 7.76949 1.61563 6.8448C2.50793 5.9201 3.98091 5.89384 4.90561 6.78615L9.644 11.3586C11.505 13.2194 10.595 13.7239 9.70265 14.6486Z" fill="#B6EDCD"/>
<rect x="9.8916" y="11.6144" width="1.96944" height="1.44036" transform="rotate(43.6203 9.8916 11.6144)" fill="#B6EDCD"/>
</svg>
