<svg width="192" height="43" viewBox="0 0 192 43" fill="none" xmlns="http://www.w3.org/2000/svg">
<path d="M27.1939 5.56845L26.7778 14.9077H25.0915C18.5653 14.9077 15.0175 18.2838 15.0175 25.8692V35.0331H5.6881V5.74384H15.0175V11.3342C17.1199 7.82653 20.3173 5.3273 25.0915 5.3273C25.9018 5.3273 26.4931 5.39307 27.1939 5.56845Z" fill="#F2F2F2"/>
<path d="M60.5476 20.3885C60.5476 29.6619 53.2111 35.8442 44.5168 35.8442C35.6473 35.8442 28.3108 29.6619 28.3108 20.3885C28.3108 11.1808 35.6473 4.97653 44.5168 4.97653C53.2111 4.97653 60.5476 11.1588 60.5476 20.3885ZM51.5686 20.3885C51.5686 15.8285 48.1303 12.8031 44.5168 12.8031C40.7281 12.8031 37.2898 15.8285 37.2898 20.3885C37.2898 24.9923 40.7281 27.9738 44.5168 27.9738C48.1303 27.9738 51.5686 24.9923 51.5686 20.3885Z" fill="#F2F2F2"/>
<path d="M125.591 35.0331H116.261V32.7092C113.984 34.7481 110.961 35.91 107.173 35.91C99.42 35.91 92.894 29.6619 92.894 20.3885C92.894 11.1808 99.42 4.86691 107.173 4.86691C110.961 4.86691 113.984 6.02884 116.261 8.06768V5.74384H125.591V35.0331ZM116.261 20.3885C116.261 15.8942 112.889 12.8031 109.1 12.8031C105.027 12.8031 102.048 15.8942 102.048 20.3885C102.048 24.9485 105.027 27.9738 109.1 27.9738C112.889 27.9738 116.261 24.9265 116.261 20.3885Z" fill="#F2F2F2"/>
<path d="M152.768 5.56845L152.352 14.9077H150.666C144.14 14.9077 140.592 18.2838 140.592 25.8692V35.0331H131.263V5.74384H140.592V11.3342C142.695 7.82653 145.892 5.3273 150.666 5.3273C151.476 5.3273 152.068 5.39307 152.768 5.56845Z" fill="#F2F2F2"/>
<path d="M186.626 35.0331H177.296V32.7092C175.019 34.7481 171.997 35.91 168.208 35.91C160.455 35.91 153.929 29.6619 153.929 20.3885C153.929 11.1808 160.455 4.86691 168.208 4.86691C171.997 4.86691 175.019 6.02884 177.296 8.06768V5.74384H186.626V35.0331ZM177.296 20.3885C177.296 15.8942 173.924 12.8031 170.135 12.8031C166.062 12.8031 163.083 15.8942 163.083 20.3885C163.083 24.9485 166.062 27.9738 170.135 27.9738C173.902 27.9738 177.296 24.9265 177.296 20.3885Z" fill="#F2F2F2"/>
<path d="M69.6361 5.67807H59.803L71.9137 35.0331H81.4183L69.6361 5.67807Z" fill="#EE2E63"/>
<path d="M93.551 5.67807H83.6959H74.6293L83.9368 28.9165L93.551 5.67807Z" fill="#EE2E63"/>
</svg>
