<?xml version="1.0" encoding="utf-8"?>
<!-- Generator: Adobe Illustrator 19.1.0, SVG Export Plug-In . SVG Version: 6.00 Build 0)  -->
<svg version="1.1" id="Layer_1" xmlns="http://www.w3.org/2000/svg" xmlns:xlink="http://www.w3.org/1999/xlink" x="0px" y="0px"
	 viewBox="0 0 1000 260" style="enable-background:new 0 0 1000 260;" xml:space="preserve">
<style type="text/css">
	.st0{fill:#323232;}
	.st1{fill:#EE2E63;}
</style>
<path class="st0" d="M188.1,25.4L186.2,68h-7.7c-29.8,0-46,15.4-46,50v41.8H89.9V26.2h42.6v25.5c9.6-16,24.2-27.4,46-27.4
	C182.2,24.3,184.9,24.6,188.1,25.4z"/>
<path class="st0" d="M340.4,93c0,42.3-33.5,70.5-73.2,70.5c-40.5,0-74-28.2-74-70.5c0-42,33.5-70.3,74-70.3
	C306.9,22.7,340.4,50.9,340.4,93z M299.4,93c0-20.8-15.7-34.6-32.2-34.6c-17.3,0-33,13.8-33,34.6c0,21,15.7,34.6,33,34.6
	C283.7,127.6,299.4,114,299.4,93z"/>
<path class="st0" d="M637.4,159.8h-42.6v-10.6c-10.4,9.3-24.2,14.6-41.5,14.6c-35.4,0-65.2-28.5-65.2-70.8c0-42,29.8-70.8,65.2-70.8
	c17.3,0,31.1,5.3,41.5,14.6V26.2h42.6V159.8z M594.8,93c0-20.5-15.4-34.6-32.7-34.6c-18.6,0-32.2,14.1-32.2,34.6
	c0,20.8,13.6,34.6,32.2,34.6C579.4,127.6,594.8,113.7,594.8,93z"/>
<path class="st0" d="M761.5,25.4L759.6,68h-7.7c-29.8,0-46,15.4-46,50v41.8h-42.6V26.2h42.6v25.5c9.6-16,24.2-27.4,46-27.4
	C755.6,24.3,758.3,24.6,761.5,25.4z"/>
<path class="st0" d="M916.1,159.8h-42.6v-10.6c-10.4,9.3-24.2,14.6-41.5,14.6c-35.4,0-65.2-28.5-65.2-70.8c0-42,29.8-70.8,65.2-70.8
	c17.3,0,31.1,5.3,41.5,14.6V26.2h42.6V159.8z M873.5,93c0-20.5-15.4-34.6-32.7-34.6c-18.6,0-32.2,14.1-32.2,34.6
	c0,20.8,13.6,34.6,32.2,34.6C858,127.6,873.5,113.7,873.5,93z"/>
<g>
	<path class="st0" d="M404,216.2c0-8.9,6.7-15.6,15.8-15.6c5.9,0,10.9,3,13.1,7.7l-2.5,1.4c-1.7-3.8-5.8-6.2-10.6-6.2
		c-7.2,0-12.7,5.6-12.7,12.8c0,7.1,5.5,12.8,12.7,12.8c4.9,0,8.8-2.5,10.8-6.2l2.5,1.5c-2.4,4.6-7.4,7.6-13.3,7.6
		C410.7,231.8,404,225.1,404,216.2z"/>
	<path class="st0" d="M437.3,216.2c0-8.9,7-15.6,15.8-15.6c8.7,0,15.7,6.8,15.7,15.6s-7,15.6-15.7,15.6
		C444.3,231.8,437.3,225.1,437.3,216.2z M465.7,216.2c0-7.1-5.5-12.8-12.6-12.8s-12.7,5.6-12.7,12.8c0,7.1,5.6,12.8,12.7,12.8
		S465.7,223.3,465.7,216.2z"/>
	<path class="st0" d="M501.3,212.5v18.6h-3.1v-18.6c0-5.5-3.2-9.1-8.8-9.1c-5.9,0-10.5,3.8-10.5,11.9v15.8h-3v-29.9h3v5.7
		c2.3-4.4,6.1-6.3,10.7-6.3C496.8,200.6,501.3,205.3,501.3,212.5z"/>
	<path class="st0" d="M529.9,223.3c0,4.9-4.3,8.5-10.7,8.5c-6,0-9.9-2.8-11.4-6.6l2.6-1.5c1.1,3.2,4.3,5.3,8.8,5.3
		c4.2,0,7.7-1.9,7.7-5.6c0-8.1-18.1-3.5-18.1-14.3c0-4.7,4.1-8.5,10.2-8.5c4.9,0,8.6,2.3,10.2,6l-2.5,1.4c-1.3-3.1-4.4-4.6-7.7-4.6
		c-3.9,0-7.2,2-7.2,5.6C511.8,217.1,529.9,212.4,529.9,223.3z"/>
	<path class="st0" d="M542.4,204.2v19.5c0,5.3,2.8,5.4,8.9,4.9v2.7c-7.8,1.2-12-0.7-12-7.5v-19.5h-6.6v-2.9h6.6v-7.5l3.1-0.9v8.4
		h8.9v2.9H542.4z"/>
	<path class="st0" d="M586.1,201.2v29.9H583v-6.8c-2.5,4.5-7.1,7.4-12.9,7.4c-8.5,0-15.5-6.8-15.5-15.6s7-15.6,15.5-15.6
		c5.7,0,10.4,2.9,12.9,7.4v-6.8H586.1z M583,216.2c0-7.1-5.5-12.8-12.6-12.8c-7.1,0-12.7,5.6-12.7,12.8c0,7.1,5.6,12.8,12.7,12.8
		C577.5,228.9,583,223.3,583,216.2z"/>
	<path class="st0" d="M620.6,212.5v18.6h-3.1v-18.6c0-5.5-3.2-9.1-8.8-9.1c-5.9,0-10.5,3.8-10.5,11.9v15.8h-3v-29.9h3v5.7
		c2.3-4.4,6.1-6.3,10.7-6.3C616.1,200.6,620.6,205.3,620.6,212.5z"/>
	<path class="st0" d="M635.5,204.2v19.5c0,5.3,2.8,5.4,8.9,4.9v2.7c-7.8,1.2-12-0.7-12-7.5v-19.5h-6.6v-2.9h6.6v-7.5l3.1-0.9v8.4
		h8.9v2.9H635.5z"/>
	<path class="st0" d="M692.7,201.2l-12.6,29.9h-3.7l-12.7-29.9h3.2l11.3,26.8l11.3-26.8H692.7z"/>
	<path class="st0" d="M694.9,216.2c0-8.9,7-15.6,15.8-15.6c8.7,0,15.7,6.8,15.7,15.6s-7,15.6-15.7,15.6
		C702,231.8,694.9,225.1,694.9,216.2z M723.3,216.2c0-7.1-5.5-12.8-12.6-12.8c-7.1,0-12.7,5.6-12.7,12.8c0,7.1,5.6,12.8,12.7,12.8
		C717.8,228.9,723.3,223.3,723.3,216.2z"/>
	<path class="st0" d="M731.5,216.2c0-8.9,7-15.6,15.8-15.6c8.7,0,15.7,6.8,15.7,15.6s-7,15.6-15.7,15.6
		C738.5,231.8,731.5,225.1,731.5,216.2z M759.9,216.2c0-7.1-5.5-12.8-12.6-12.8c-7.1,0-12.7,5.6-12.7,12.8c0,7.1,5.6,12.8,12.7,12.8
		C754.4,228.9,759.9,223.3,759.9,216.2z"/>
	<path class="st0" d="M783.2,200.8v2.9c-5.2,0-10,3.2-10,10.8v16.7h-3v-29.9h3v5.9C775.2,202.4,779.1,200.8,783.2,200.8z"/>
	<path class="st0" d="M816.8,189.2v41.9h-3v-6.9c-2.5,4.6-7.1,7.6-12.9,7.6c-8.6,0-15.5-6.8-15.5-15.6s6.9-15.6,15.5-15.6
		c5.8,0,10.4,3,12.9,7.6v-18.9H816.8z M813.8,216.2c0-7.1-5.6-12.8-12.7-12.8s-12.7,5.6-12.7,12.8c0,7.1,5.6,12.8,12.7,12.8
		S813.8,223.3,813.8,216.2z"/>
	<path class="st0" d="M854.3,216.3c0,0.5-0.1,1-0.1,1.4h-27.1c0.7,6.8,5.9,11.2,12.7,11.2c4.9,0,8.6-2.3,10.4-5.5l2.6,1.6
		c-2.5,4.1-7.1,6.8-13.1,6.8c-9.2,0-15.8-6.6-15.8-15.6c0-8.8,6.3-15.6,15.5-15.6C848.6,200.6,854.3,208.1,854.3,216.3z
		 M827.1,214.8h24.1c-0.7-7.3-5.8-11.4-11.7-11.4C832.7,203.4,827.7,208.2,827.1,214.8z"/>
	<path class="st0" d="M861.3,187.4h3v43.7h-3V187.4z"/>
	<path class="st0" d="M872.6,191.6c0-1.3,1.1-2.3,2.4-2.3c1.3,0,2.4,1.1,2.4,2.3c0,1.3-1.1,2.4-2.4,2.4
		C873.7,194,872.6,192.9,872.6,191.6z M873.5,201.2h3v29.9h-3V201.2z"/>
	<path class="st0" d="M915.3,201.2v28.5c0,9-6.6,14.1-14.9,14.1c-7,0-12-2.8-14.1-7.2l2.6-1.5c1.6,3.2,4.9,5.8,11.5,5.8
		c7.5,0,11.9-4.4,11.9-11.2v-5.5c-2.5,4.6-7.1,7.6-12.9,7.6c-8.6,0-15.5-6.8-15.5-15.6s6.9-15.6,15.5-15.6c5.8,0,10.4,3,12.9,7.6
		v-6.9H915.3z M912.3,216.2c0-7.1-5.6-12.8-12.7-12.8c-7.1,0-12.7,5.6-12.7,12.8c0,7.1,5.6,12.8,12.7,12.8
		C906.8,228.9,912.3,223.3,912.3,216.2z"/>
</g>
<polygon class="st1" points="381.9,25.9 337,25.9 392.3,159.8 435.7,159.8 "/>
<polygon class="st1" points="491.1,25.9 446.1,25.9 404.7,25.9 447.2,131.9 "/>
</svg>
