<?xml version="1.0" encoding="utf-8"?>
<svg id="Laag_2" data-name="Laag 2" viewBox="0 0 8 10" xmlns="http://www.w3.org/2000/svg" width="8" height="10">
  <defs>
    <style>.cls-1, .cls-2 { fill: none; stroke: rgb(0, 0, 0); stroke-miterlimit: 10; }
.cls-2 { stroke-width: 4px; }
.cls-3 { fill: rgb(26, 26, 24); }
.cls-4 { fill: rgb(245, 130, 32); }</style>
  </defs>
  <title>marker-1.0.0</title>
  <path class="cls-2" d="M 7.388 4.033 C 7.388 5.902 5.527 7.186 4.015 9.171 C 2.504 7.186 0.643 5.902 0.643 4.033 C 0.643 1.426 3.453 -0.204 5.702 1.1 C 6.745 1.705 7.388 2.823 7.388 4.033 Z" style="fill: rgb(255, 255, 255); stroke-width: 0.5px;"/>
  <path class="cls-3" d="M 3.694 2.989 C 3.356 2.989 3.032 3.131 2.801 3.381 L 2.801 2.372 L 2.22 2.372 L 2.22 2.682 L 2.48 2.682 L 2.48 5.368 L 2.797 5.368 L 2.797 5.042 C 3.433 5.733 4.576 5.473 4.853 4.574 C 5.097 3.787 4.511 2.989 3.69 2.989 Z M 3.694 5.132 C 2.989 5.132 2.548 4.365 2.901 3.752 C 3.254 3.138 4.136 3.138 4.488 3.752 C 4.569 3.891 4.611 4.05 4.611 4.211 C 4.611 4.72 4.201 5.132 3.694 5.132 Z" style="stroke-width: 0.5px;"/>
  <path class="cls-4" d="M 6.168 5.177 C 6.165 5.516 5.798 5.723 5.508 5.551 C 5.218 5.378 5.223 4.956 5.516 4.79 C 5.582 4.753 5.656 4.733 5.731 4.733 C 5.974 4.733 6.171 4.933 6.168 5.177 Z" style="stroke-width: 0.5px;"/>
</svg>
